<mxfile host="Electron" agent="Mozilla/5.0 (Windows NT 10.0; Win64; x64) AppleWebKit/537.36 (KHTML, like Gecko) draw.io/26.1.1 Chrome/132.0.6834.210 Electron/34.3.3 Safari/537.36" version="26.1.1">
  <diagram name="Page-1" id="c4acf3e9-155e-7222-9cf6-157b1a14988f">
    <mxGraphModel dx="1644" dy="965" grid="1" gridSize="10" guides="1" tooltips="1" connect="1" arrows="1" fold="1" page="1" pageScale="1" pageWidth="850" pageHeight="950" background="none" math="0" shadow="0">
      <root>
        <mxCell id="0" />
        <mxCell id="1" parent="0" />
        <mxCell id="3YhitboZt-2DmiQwaE2G-18" value="" style="group" vertex="1" connectable="0" parent="1">
          <mxGeometry x="35" y="30" width="815" height="900" as="geometry" />
        </mxCell>
        <mxCell id="17acba5748e5396b-2" value="&lt;b&gt;PyObject&lt;/b&gt;" style="swimlane;html=1;fontStyle=0;childLayout=stackLayout;horizontal=1;startSize=26;fillColor=none;horizontalStack=0;resizeParent=1;resizeLast=0;collapsible=1;marginBottom=0;swimlaneFillColor=#ffffff;rounded=0;shadow=0;comic=0;labelBackgroundColor=none;strokeWidth=1;fontFamily=Verdana;fontSize=13;align=center;" parent="3YhitboZt-2DmiQwaE2G-18" vertex="1">
          <mxGeometry x="605" y="80" width="210" height="100" as="geometry">
            <mxRectangle x="650" y="628" width="90" height="30" as="alternateBounds" />
          </mxGeometry>
        </mxCell>
        <mxCell id="17acba5748e5396b-6" value="+ klass: std::shared_ptr&amp;lt;Klass&amp;gt;" style="text;html=1;strokeColor=none;fillColor=none;align=left;verticalAlign=top;spacingLeft=4;spacingRight=4;whiteSpace=wrap;overflow=hidden;rotatable=0;points=[[0,0.5],[1,0.5]];portConstraint=eastwest;fontSize=13;" parent="17acba5748e5396b-2" vertex="1">
          <mxGeometry y="26" width="210" height="26" as="geometry" />
        </mxCell>
        <mxCell id="17acba5748e5396b-9" value="+ attributes: std::shared_ptr&amp;lt;PyDictionary&amp;gt;" style="text;html=1;strokeColor=none;fillColor=none;align=left;verticalAlign=top;spacingLeft=4;spacingRight=4;whiteSpace=wrap;overflow=hidden;rotatable=0;points=[[0,0.5],[1,0.5]];portConstraint=eastwest;fontSize=13;" parent="17acba5748e5396b-2" vertex="1">
          <mxGeometry y="52" width="210" height="48" as="geometry" />
        </mxCell>
        <mxCell id="DQqMGWL0dYQCKO8By0Vx-1" value="&lt;b&gt;Klass&lt;/b&gt;" style="swimlane;html=1;fontStyle=0;childLayout=stackLayout;horizontal=1;startSize=26;fillColor=none;horizontalStack=0;resizeParent=1;resizeLast=0;collapsible=1;marginBottom=0;swimlaneFillColor=#ffffff;rounded=0;shadow=0;comic=0;labelBackgroundColor=none;strokeWidth=1;fontFamily=Verdana;fontSize=13;align=center;" parent="3YhitboZt-2DmiQwaE2G-18" vertex="1">
          <mxGeometry x="45" width="290" height="200" as="geometry">
            <mxRectangle x="650" y="628" width="90" height="30" as="alternateBounds" />
          </mxGeometry>
        </mxCell>
        <mxCell id="DQqMGWL0dYQCKO8By0Vx-2" value="+ name: std::shared_ptr&amp;lt;PyString&amp;gt;" style="text;html=1;strokeColor=none;fillColor=none;align=left;verticalAlign=top;spacingLeft=4;spacingRight=4;whiteSpace=wrap;overflow=hidden;rotatable=0;points=[[0,0.5],[1,0.5]];portConstraint=eastwest;fontSize=13;" parent="DQqMGWL0dYQCKO8By0Vx-1" vertex="1">
          <mxGeometry y="26" width="290" height="26" as="geometry" />
        </mxCell>
        <mxCell id="DQqMGWL0dYQCKO8By0Vx-3" value="+ attributes: std::shared_ptr&amp;lt;PyDictionary&amp;gt;" style="text;html=1;strokeColor=none;fillColor=none;align=left;verticalAlign=top;spacingLeft=4;spacingRight=4;whiteSpace=wrap;overflow=hidden;rotatable=0;points=[[0,0.5],[1,0.5]];portConstraint=eastwest;fontSize=13;" parent="DQqMGWL0dYQCKO8By0Vx-1" vertex="1">
          <mxGeometry y="52" width="290" height="28" as="geometry" />
        </mxCell>
        <mxCell id="DQqMGWL0dYQCKO8By0Vx-9" value="+ type: std::shared_ptr&amp;lt;PyType&amp;gt;" style="text;html=1;strokeColor=none;fillColor=none;align=left;verticalAlign=top;spacingLeft=4;spacingRight=4;whiteSpace=wrap;overflow=hidden;rotatable=0;points=[[0,0.5],[1,0.5]];portConstraint=eastwest;fontSize=13;" parent="DQqMGWL0dYQCKO8By0Vx-1" vertex="1">
          <mxGeometry y="80" width="290" height="28" as="geometry" />
        </mxCell>
        <mxCell id="DQqMGWL0dYQCKO8By0Vx-10" value="+ super: std::shared_ptr&amp;lt;PyList&amp;gt;" style="text;html=1;strokeColor=none;fillColor=none;align=left;verticalAlign=top;spacingLeft=4;spacingRight=4;whiteSpace=wrap;overflow=hidden;rotatable=0;points=[[0,0.5],[1,0.5]];portConstraint=eastwest;fontSize=13;" parent="DQqMGWL0dYQCKO8By0Vx-1" vertex="1">
          <mxGeometry y="108" width="290" height="28" as="geometry" />
        </mxCell>
        <mxCell id="DQqMGWL0dYQCKO8By0Vx-11" value="+ mro: std::shared_ptr&amp;lt;PyList&amp;gt;" style="text;html=1;strokeColor=none;fillColor=none;align=left;verticalAlign=top;spacingLeft=4;spacingRight=4;whiteSpace=wrap;overflow=hidden;rotatable=0;points=[[0,0.5],[1,0.5]];portConstraint=eastwest;fontSize=13;" parent="DQqMGWL0dYQCKO8By0Vx-1" vertex="1">
          <mxGeometry y="136" width="290" height="28" as="geometry" />
        </mxCell>
        <mxCell id="DQqMGWL0dYQCKO8By0Vx-20" value="-&amp;nbsp;魔术方法，包括__add__, __str__等" style="text;html=1;strokeColor=none;fillColor=none;align=left;verticalAlign=top;spacingLeft=4;spacingRight=4;whiteSpace=wrap;overflow=hidden;rotatable=0;points=[[0,0.5],[1,0.5]];portConstraint=eastwest;fontSize=13;" parent="DQqMGWL0dYQCKO8By0Vx-1" vertex="1">
          <mxGeometry y="164" width="290" height="28" as="geometry" />
        </mxCell>
        <mxCell id="DQqMGWL0dYQCKO8By0Vx-14" style="edgeStyle=orthogonalEdgeStyle;rounded=0;orthogonalLoop=1;jettySize=auto;html=1;exitX=0;exitY=0.5;exitDx=0;exitDy=0;entryX=0.5;entryY=0;entryDx=0;entryDy=0;fontSize=13;dashed=1;dashPattern=8 8;" parent="3YhitboZt-2DmiQwaE2G-18" source="17acba5748e5396b-6" target="DQqMGWL0dYQCKO8By0Vx-1" edge="1">
          <mxGeometry relative="1" as="geometry" />
        </mxCell>
        <mxCell id="DQqMGWL0dYQCKO8By0Vx-33" style="edgeStyle=orthogonalEdgeStyle;rounded=0;orthogonalLoop=1;jettySize=auto;html=1;exitX=0.5;exitY=0;exitDx=0;exitDy=0;fontSize=13;" parent="3YhitboZt-2DmiQwaE2G-18" source="DQqMGWL0dYQCKO8By0Vx-22" edge="1" target="DQqMGWL0dYQCKO8By0Vx-1">
          <mxGeometry relative="1" as="geometry">
            <mxPoint x="310" y="234" as="targetPoint" />
          </mxGeometry>
        </mxCell>
        <mxCell id="DQqMGWL0dYQCKO8By0Vx-22" value="&lt;b&gt;DictionaryKlass&lt;/b&gt;" style="swimlane;fontStyle=0;childLayout=stackLayout;horizontal=1;startSize=26;fillColor=none;horizontalStack=0;resizeParent=1;resizeParentMax=0;resizeLast=0;collapsible=1;marginBottom=0;whiteSpace=wrap;html=1;fontSize=13;" parent="3YhitboZt-2DmiQwaE2G-18" vertex="1">
          <mxGeometry x="390" y="284" width="140" height="56" as="geometry" />
        </mxCell>
        <mxCell id="DQqMGWL0dYQCKO8By0Vx-93" value="+ ..." style="text;strokeColor=none;fillColor=none;align=left;verticalAlign=top;spacingLeft=4;spacingRight=4;overflow=hidden;rotatable=0;points=[[0,0.5],[1,0.5]];portConstraint=eastwest;whiteSpace=wrap;html=1;fontSize=13;" parent="DQqMGWL0dYQCKO8By0Vx-22" vertex="1">
          <mxGeometry y="26" width="140" height="30" as="geometry" />
        </mxCell>
        <mxCell id="DQqMGWL0dYQCKO8By0Vx-32" style="edgeStyle=orthogonalEdgeStyle;rounded=0;orthogonalLoop=1;jettySize=auto;html=1;exitX=0.5;exitY=0;exitDx=0;exitDy=0;fontSize=13;" parent="3YhitboZt-2DmiQwaE2G-18" source="DQqMGWL0dYQCKO8By0Vx-23" edge="1" target="DQqMGWL0dYQCKO8By0Vx-1">
          <mxGeometry relative="1" as="geometry">
            <mxPoint x="230" y="234" as="targetPoint" />
          </mxGeometry>
        </mxCell>
        <mxCell id="DQqMGWL0dYQCKO8By0Vx-23" value="&lt;b&gt;ListKlass&lt;/b&gt;" style="swimlane;fontStyle=0;childLayout=stackLayout;horizontal=1;startSize=26;fillColor=none;horizontalStack=0;resizeParent=1;resizeParentMax=0;resizeLast=0;collapsible=1;marginBottom=0;whiteSpace=wrap;html=1;fontSize=13;" parent="3YhitboZt-2DmiQwaE2G-18" vertex="1">
          <mxGeometry x="220" y="284" width="140" height="56" as="geometry" />
        </mxCell>
        <mxCell id="DQqMGWL0dYQCKO8By0Vx-92" value="+ ..." style="text;strokeColor=none;fillColor=none;align=left;verticalAlign=top;spacingLeft=4;spacingRight=4;overflow=hidden;rotatable=0;points=[[0,0.5],[1,0.5]];portConstraint=eastwest;whiteSpace=wrap;html=1;fontSize=13;" parent="DQqMGWL0dYQCKO8By0Vx-23" vertex="1">
          <mxGeometry y="26" width="140" height="30" as="geometry" />
        </mxCell>
        <mxCell id="DQqMGWL0dYQCKO8By0Vx-34" style="edgeStyle=orthogonalEdgeStyle;rounded=0;orthogonalLoop=1;jettySize=auto;html=1;exitX=0.5;exitY=0;exitDx=0;exitDy=0;fontSize=13;" parent="3YhitboZt-2DmiQwaE2G-18" source="DQqMGWL0dYQCKO8By0Vx-24" target="DQqMGWL0dYQCKO8By0Vx-1" edge="1">
          <mxGeometry relative="1" as="geometry" />
        </mxCell>
        <mxCell id="DQqMGWL0dYQCKO8By0Vx-24" value="&lt;b&gt;TypeKlass&lt;/b&gt;" style="swimlane;fontStyle=0;childLayout=stackLayout;horizontal=1;startSize=26;fillColor=none;horizontalStack=0;resizeParent=1;resizeParentMax=0;resizeLast=0;collapsible=1;marginBottom=0;whiteSpace=wrap;html=1;fontSize=13;" parent="3YhitboZt-2DmiQwaE2G-18" vertex="1">
          <mxGeometry x="550" y="284" width="140" height="56" as="geometry" />
        </mxCell>
        <mxCell id="DQqMGWL0dYQCKO8By0Vx-94" value="+ ..." style="text;strokeColor=none;fillColor=none;align=left;verticalAlign=top;spacingLeft=4;spacingRight=4;overflow=hidden;rotatable=0;points=[[0,0.5],[1,0.5]];portConstraint=eastwest;whiteSpace=wrap;html=1;fontSize=13;" parent="DQqMGWL0dYQCKO8By0Vx-24" vertex="1">
          <mxGeometry y="26" width="140" height="30" as="geometry" />
        </mxCell>
        <mxCell id="DQqMGWL0dYQCKO8By0Vx-49" value="&lt;b&gt;PyList&lt;/b&gt;" style="swimlane;fontStyle=0;childLayout=stackLayout;horizontal=1;startSize=26;fillColor=none;horizontalStack=0;resizeParent=1;resizeParentMax=0;resizeLast=0;collapsible=1;marginBottom=0;whiteSpace=wrap;html=1;fontSize=13;" parent="3YhitboZt-2DmiQwaE2G-18" vertex="1">
          <mxGeometry x="220" y="510" width="180" height="78" as="geometry" />
        </mxCell>
        <mxCell id="DQqMGWL0dYQCKO8By0Vx-50" value="+ value: Collections::List" style="text;strokeColor=none;fillColor=none;align=left;verticalAlign=top;spacingLeft=4;spacingRight=4;overflow=hidden;rotatable=0;points=[[0,0.5],[1,0.5]];portConstraint=eastwest;whiteSpace=wrap;html=1;fontSize=13;" parent="DQqMGWL0dYQCKO8By0Vx-49" vertex="1">
          <mxGeometry y="26" width="180" height="26" as="geometry" />
        </mxCell>
        <mxCell id="DQqMGWL0dYQCKO8By0Vx-96" value="+&amp;nbsp;klass: ListKlass" style="text;strokeColor=none;fillColor=none;align=left;verticalAlign=top;spacingLeft=4;spacingRight=4;overflow=hidden;rotatable=0;points=[[0,0.5],[1,0.5]];portConstraint=eastwest;whiteSpace=wrap;html=1;fontSize=13;" parent="DQqMGWL0dYQCKO8By0Vx-49" vertex="1">
          <mxGeometry y="52" width="180" height="26" as="geometry" />
        </mxCell>
        <mxCell id="DQqMGWL0dYQCKO8By0Vx-51" value="&lt;b&gt;PyDictionary&lt;/b&gt;" style="swimlane;fontStyle=0;childLayout=stackLayout;horizontal=1;startSize=26;fillColor=none;horizontalStack=0;resizeParent=1;resizeParentMax=0;resizeLast=0;collapsible=1;marginBottom=0;whiteSpace=wrap;html=1;fontSize=13;" parent="3YhitboZt-2DmiQwaE2G-18" vertex="1">
          <mxGeometry x="360" y="366" width="175" height="136" as="geometry" />
        </mxCell>
        <mxCell id="DQqMGWL0dYQCKO8By0Vx-52" value="+ value:&amp;nbsp;&lt;div&gt;std::map&amp;lt;&lt;/div&gt;&lt;div&gt;std::shared_ptr&amp;lt;PyObject&amp;gt;,&lt;/div&gt;&lt;div&gt;std::shared_ptr&amp;lt;PyObject&amp;gt;&lt;/div&gt;&lt;div&gt;&amp;gt;&lt;/div&gt;" style="text;strokeColor=none;fillColor=none;align=left;verticalAlign=top;spacingLeft=4;spacingRight=4;overflow=hidden;rotatable=0;points=[[0,0.5],[1,0.5]];portConstraint=eastwest;whiteSpace=wrap;html=1;fontSize=13;" parent="DQqMGWL0dYQCKO8By0Vx-51" vertex="1">
          <mxGeometry y="26" width="175" height="84" as="geometry" />
        </mxCell>
        <mxCell id="DQqMGWL0dYQCKO8By0Vx-66" value="+&amp;nbsp;klass: DictionaryKlass" style="text;strokeColor=none;fillColor=none;align=left;verticalAlign=top;spacingLeft=4;spacingRight=4;overflow=hidden;rotatable=0;points=[[0,0.5],[1,0.5]];portConstraint=eastwest;whiteSpace=wrap;html=1;fontSize=13;" parent="DQqMGWL0dYQCKO8By0Vx-51" vertex="1">
          <mxGeometry y="110" width="175" height="26" as="geometry" />
        </mxCell>
        <mxCell id="DQqMGWL0dYQCKO8By0Vx-53" value="&lt;b&gt;PyType&lt;/b&gt;" style="swimlane;fontStyle=0;childLayout=stackLayout;horizontal=1;startSize=26;fillColor=none;horizontalStack=0;resizeParent=1;resizeParentMax=0;resizeLast=0;collapsible=1;marginBottom=0;whiteSpace=wrap;html=1;fontSize=13;" parent="3YhitboZt-2DmiQwaE2G-18" vertex="1">
          <mxGeometry x="560" y="620" width="200" height="76" as="geometry" />
        </mxCell>
        <mxCell id="DQqMGWL0dYQCKO8By0Vx-54" value="+ owner:&amp;nbsp;std::shared_ptr&amp;lt;Klass&amp;gt;" style="text;strokeColor=none;fillColor=none;align=left;verticalAlign=top;spacingLeft=4;spacingRight=4;overflow=hidden;rotatable=0;points=[[0,0.5],[1,0.5]];portConstraint=eastwest;whiteSpace=wrap;html=1;fontSize=13;" parent="DQqMGWL0dYQCKO8By0Vx-53" vertex="1">
          <mxGeometry y="26" width="200" height="24" as="geometry" />
        </mxCell>
        <mxCell id="DQqMGWL0dYQCKO8By0Vx-97" value="+&amp;nbsp;klass: TypeKlass" style="text;strokeColor=none;fillColor=none;align=left;verticalAlign=top;spacingLeft=4;spacingRight=4;overflow=hidden;rotatable=0;points=[[0,0.5],[1,0.5]];portConstraint=eastwest;whiteSpace=wrap;html=1;fontSize=13;" parent="DQqMGWL0dYQCKO8By0Vx-53" vertex="1">
          <mxGeometry y="50" width="200" height="26" as="geometry" />
        </mxCell>
        <mxCell id="DQqMGWL0dYQCKO8By0Vx-64" value="&lt;b&gt;PyString&lt;/b&gt;" style="swimlane;fontStyle=0;childLayout=stackLayout;horizontal=1;startSize=26;fillColor=none;horizontalStack=0;resizeParent=1;resizeParentMax=0;resizeLast=0;collapsible=1;marginBottom=0;whiteSpace=wrap;html=1;fontSize=13;" parent="3YhitboZt-2DmiQwaE2G-18" vertex="1">
          <mxGeometry y="570" width="170" height="78" as="geometry" />
        </mxCell>
        <mxCell id="DQqMGWL0dYQCKO8By0Vx-65" value="+ value: Collections::String" style="text;strokeColor=none;fillColor=none;align=left;verticalAlign=top;spacingLeft=4;spacingRight=4;overflow=hidden;rotatable=0;points=[[0,0.5],[1,0.5]];portConstraint=eastwest;whiteSpace=wrap;html=1;fontSize=13;" parent="DQqMGWL0dYQCKO8By0Vx-64" vertex="1">
          <mxGeometry y="26" width="170" height="26" as="geometry" />
        </mxCell>
        <mxCell id="DQqMGWL0dYQCKO8By0Vx-95" value="+&amp;nbsp;klass: StringKlass" style="text;strokeColor=none;fillColor=none;align=left;verticalAlign=top;spacingLeft=4;spacingRight=4;overflow=hidden;rotatable=0;points=[[0,0.5],[1,0.5]];portConstraint=eastwest;whiteSpace=wrap;html=1;fontSize=13;" parent="DQqMGWL0dYQCKO8By0Vx-64" vertex="1">
          <mxGeometry y="52" width="170" height="26" as="geometry" />
        </mxCell>
        <mxCell id="3YhitboZt-2DmiQwaE2G-20" style="edgeStyle=orthogonalEdgeStyle;shape=connector;rounded=0;orthogonalLoop=1;jettySize=auto;html=1;exitX=0.5;exitY=0;exitDx=0;exitDy=0;entryX=0.5;entryY=1;entryDx=0;entryDy=0;strokeColor=default;align=center;verticalAlign=middle;fontFamily=Helvetica;fontSize=13;fontColor=default;labelBackgroundColor=default;endArrow=classic;fillColor=#dae8fc;" edge="1" parent="3YhitboZt-2DmiQwaE2G-18" source="DQqMGWL0dYQCKO8By0Vx-72" target="DQqMGWL0dYQCKO8By0Vx-1">
          <mxGeometry relative="1" as="geometry" />
        </mxCell>
        <mxCell id="3YhitboZt-2DmiQwaE2G-22" value="继承" style="edgeLabel;html=1;align=center;verticalAlign=middle;resizable=0;points=[];fontFamily=Helvetica;fontSize=13;fontColor=light-dark(#000000, #dadaff);labelBackgroundColor=default;" vertex="1" connectable="0" parent="3YhitboZt-2DmiQwaE2G-20">
          <mxGeometry x="0.8045" relative="1" as="geometry">
            <mxPoint as="offset" />
          </mxGeometry>
        </mxCell>
        <mxCell id="DQqMGWL0dYQCKO8By0Vx-72" value="StringKlass" style="swimlane;fontStyle=1;align=center;verticalAlign=top;childLayout=stackLayout;horizontal=1;startSize=26;horizontalStack=0;resizeParent=1;resizeParentMax=0;resizeLast=0;collapsible=1;marginBottom=0;whiteSpace=wrap;html=1;fontSize=13;" parent="3YhitboZt-2DmiQwaE2G-18" vertex="1">
          <mxGeometry y="284" width="190" height="180" as="geometry">
            <mxRectangle x="440" y="899" width="100" height="30" as="alternateBounds" />
          </mxGeometry>
        </mxCell>
        <mxCell id="DQqMGWL0dYQCKO8By0Vx-74" value="" style="line;strokeWidth=1;fillColor=none;align=left;verticalAlign=middle;spacingTop=-1;spacingLeft=3;spacingRight=3;rotatable=0;labelPosition=right;points=[];portConstraint=eastwest;strokeColor=inherit;fontSize=13;" parent="DQqMGWL0dYQCKO8By0Vx-72" vertex="1">
          <mxGeometry y="26" width="190" height="8" as="geometry" />
        </mxCell>
        <mxCell id="DQqMGWL0dYQCKO8By0Vx-90" value="+&amp;nbsp;hash&lt;span style=&quot;background-color: transparent; color: light-dark(rgb(0, 0, 0), rgb(255, 255, 255));&quot;&gt;(const std::shared_ptr&amp;lt;PyObject&amp;gt;&amp;amp;): std::shared_ptr&amp;lt;PyObject&amp;gt;&lt;/span&gt;" style="text;strokeColor=none;fillColor=none;align=left;verticalAlign=top;spacingLeft=4;spacingRight=4;overflow=hidden;rotatable=0;points=[[0,0.5],[1,0.5]];portConstraint=eastwest;whiteSpace=wrap;html=1;fontSize=13;" parent="DQqMGWL0dYQCKO8By0Vx-72" vertex="1">
          <mxGeometry y="34" width="190" height="56" as="geometry" />
        </mxCell>
        <mxCell id="DQqMGWL0dYQCKO8By0Vx-75" value="+&amp;nbsp;iter&lt;span style=&quot;color: light-dark(rgb(0, 0, 0), rgb(255, 255, 255)); background-color: transparent;&quot;&gt;(const std::shared_ptr&amp;lt;PyObject&amp;gt;&amp;amp;): std::shared_ptr&amp;lt;PyObject&amp;gt;&lt;/span&gt;" style="text;strokeColor=none;fillColor=none;align=left;verticalAlign=top;spacingLeft=4;spacingRight=4;overflow=hidden;rotatable=0;points=[[0,0.5],[1,0.5]];portConstraint=eastwest;whiteSpace=wrap;html=1;fontSize=13;" parent="DQqMGWL0dYQCKO8By0Vx-72" vertex="1">
          <mxGeometry y="90" width="190" height="60" as="geometry" />
        </mxCell>
        <mxCell id="DQqMGWL0dYQCKO8By0Vx-91" value="+ ..." style="text;strokeColor=none;fillColor=none;align=left;verticalAlign=top;spacingLeft=4;spacingRight=4;overflow=hidden;rotatable=0;points=[[0,0.5],[1,0.5]];portConstraint=eastwest;whiteSpace=wrap;html=1;fontSize=13;" parent="DQqMGWL0dYQCKO8By0Vx-72" vertex="1">
          <mxGeometry y="150" width="190" height="30" as="geometry" />
        </mxCell>
        <mxCell id="DQqMGWL0dYQCKO8By0Vx-101" style="edgeStyle=orthogonalEdgeStyle;rounded=0;orthogonalLoop=1;jettySize=auto;html=1;exitX=0;exitY=0.5;exitDx=0;exitDy=0;fontSize=13;dashed=1;dashPattern=8 8;" parent="3YhitboZt-2DmiQwaE2G-18" source="DQqMGWL0dYQCKO8By0Vx-66" target="DQqMGWL0dYQCKO8By0Vx-22" edge="1">
          <mxGeometry relative="1" as="geometry">
            <Array as="points">
              <mxPoint x="340" y="489" />
              <mxPoint x="340" y="360" />
              <mxPoint x="460" y="360" />
            </Array>
          </mxGeometry>
        </mxCell>
        <mxCell id="DQqMGWL0dYQCKO8By0Vx-102" style="edgeStyle=orthogonalEdgeStyle;rounded=0;orthogonalLoop=1;jettySize=auto;html=1;exitX=0;exitY=0.5;exitDx=0;exitDy=0;fontSize=13;fontColor=default;fillColor=#dae8fc;strokeColor=default;align=center;verticalAlign=middle;fontFamily=Helvetica;labelBackgroundColor=default;endArrow=classic;dashed=1;dashPattern=8 8;" parent="3YhitboZt-2DmiQwaE2G-18" source="DQqMGWL0dYQCKO8By0Vx-97" target="DQqMGWL0dYQCKO8By0Vx-24" edge="1">
          <mxGeometry relative="1" as="geometry" />
        </mxCell>
        <mxCell id="DQqMGWL0dYQCKO8By0Vx-107" value="&lt;b&gt;自定义类型Klass&lt;/b&gt;" style="swimlane;html=1;fontStyle=0;childLayout=stackLayout;horizontal=1;startSize=26;fillColor=none;horizontalStack=0;resizeParent=1;resizeLast=0;collapsible=1;marginBottom=0;swimlaneFillColor=#ffffff;rounded=0;shadow=0;comic=0;labelBackgroundColor=none;strokeWidth=1;fontFamily=Verdana;fontSize=13;align=center;" parent="3YhitboZt-2DmiQwaE2G-18" vertex="1">
          <mxGeometry x="140" y="710" width="300" height="190" as="geometry">
            <mxRectangle x="650" y="628" width="90" height="30" as="alternateBounds" />
          </mxGeometry>
        </mxCell>
        <mxCell id="DQqMGWL0dYQCKO8By0Vx-108" value="+ name:&amp;nbsp;自定义类名(由语法分析或者字节码解析得到）" style="text;html=1;strokeColor=none;fillColor=none;align=left;verticalAlign=top;spacingLeft=4;spacingRight=4;whiteSpace=wrap;overflow=hidden;rotatable=0;points=[[0,0.5],[1,0.5]];portConstraint=eastwest;fontSize=13;" parent="DQqMGWL0dYQCKO8By0Vx-107" vertex="1">
          <mxGeometry y="26" width="300" height="34" as="geometry" />
        </mxCell>
        <mxCell id="DQqMGWL0dYQCKO8By0Vx-109" value="+ attributes:&amp;nbsp;自定义类代码对象运行结束后的局部变量表&amp;nbsp;" style="text;html=1;strokeColor=none;fillColor=none;align=left;verticalAlign=top;spacingLeft=4;spacingRight=4;whiteSpace=wrap;overflow=hidden;rotatable=0;points=[[0,0.5],[1,0.5]];portConstraint=eastwest;fontSize=13;" parent="DQqMGWL0dYQCKO8By0Vx-107" vertex="1">
          <mxGeometry y="60" width="300" height="38" as="geometry" />
        </mxCell>
        <mxCell id="DQqMGWL0dYQCKO8By0Vx-122" value="+&amp;nbsp;bases:&amp;nbsp;该自定义类的基类(由语法分析或者字节码解析得到）" style="text;html=1;strokeColor=none;fillColor=none;align=left;verticalAlign=top;spacingLeft=4;spacingRight=4;whiteSpace=wrap;overflow=hidden;rotatable=0;points=[[0,0.5],[1,0.5]];portConstraint=eastwest;fontSize=13;" parent="DQqMGWL0dYQCKO8By0Vx-107" vertex="1">
          <mxGeometry y="98" width="300" height="38" as="geometry" />
        </mxCell>
        <mxCell id="DQqMGWL0dYQCKO8By0Vx-121" value="+&amp;nbsp;mro:&amp;nbsp;方法解析顺序" style="text;html=1;strokeColor=none;fillColor=none;align=left;verticalAlign=top;spacingLeft=4;spacingRight=4;whiteSpace=wrap;overflow=hidden;rotatable=0;points=[[0,0.5],[1,0.5]];portConstraint=eastwest;fontSize=13;" parent="DQqMGWL0dYQCKO8By0Vx-107" vertex="1">
          <mxGeometry y="136" width="300" height="24" as="geometry" />
        </mxCell>
        <mxCell id="DQqMGWL0dYQCKO8By0Vx-129" value="+ type: std::shared_ptr&amp;lt;PyType&amp;gt;" style="text;html=1;strokeColor=none;fillColor=none;align=left;verticalAlign=top;spacingLeft=4;spacingRight=4;whiteSpace=wrap;overflow=hidden;rotatable=0;points=[[0,0.5],[1,0.5]];portConstraint=eastwest;fontSize=13;" parent="DQqMGWL0dYQCKO8By0Vx-107" vertex="1">
          <mxGeometry y="160" width="300" height="28" as="geometry" />
        </mxCell>
        <mxCell id="3YhitboZt-2DmiQwaE2G-15" style="edgeStyle=orthogonalEdgeStyle;rounded=0;orthogonalLoop=1;jettySize=auto;html=1;exitX=0;exitY=0.5;exitDx=0;exitDy=0;entryX=0.001;entryY=0.715;entryDx=0;entryDy=0;entryPerimeter=0;fontSize=13;" edge="1" parent="DQqMGWL0dYQCKO8By0Vx-107" source="DQqMGWL0dYQCKO8By0Vx-122" target="DQqMGWL0dYQCKO8By0Vx-121">
          <mxGeometry relative="1" as="geometry">
            <Array as="points">
              <mxPoint x="-55" y="107" />
              <mxPoint x="-55" y="143" />
            </Array>
          </mxGeometry>
        </mxCell>
        <mxCell id="3YhitboZt-2DmiQwaE2G-16" value="C3&amp;nbsp;算法" style="edgeLabel;html=1;align=center;verticalAlign=middle;resizable=0;points=[];fontSize=13;" vertex="1" connectable="0" parent="3YhitboZt-2DmiQwaE2G-15">
          <mxGeometry x="-0.0405" relative="1" as="geometry">
            <mxPoint as="offset" />
          </mxGeometry>
        </mxCell>
        <mxCell id="DQqMGWL0dYQCKO8By0Vx-118" value="&lt;b&gt;自定义类型Type&lt;/b&gt;" style="swimlane;html=1;fontStyle=0;childLayout=stackLayout;horizontal=1;startSize=26;fillColor=none;horizontalStack=0;resizeParent=1;resizeLast=0;collapsible=1;marginBottom=0;swimlaneFillColor=#ffffff;rounded=0;shadow=0;comic=0;labelBackgroundColor=none;strokeWidth=1;fontFamily=Verdana;fontSize=13;align=center;" parent="3YhitboZt-2DmiQwaE2G-18" vertex="1">
          <mxGeometry x="475" y="730" width="290" height="78" as="geometry">
            <mxRectangle x="650" y="628" width="90" height="30" as="alternateBounds" />
          </mxGeometry>
        </mxCell>
        <mxCell id="DQqMGWL0dYQCKO8By0Vx-119" value="+&amp;nbsp;owner: std::shared_ptr&amp;lt;Klass&amp;gt;" style="text;html=1;strokeColor=none;fillColor=none;align=left;verticalAlign=top;spacingLeft=4;spacingRight=4;whiteSpace=wrap;overflow=hidden;rotatable=0;points=[[0,0.5],[1,0.5]];portConstraint=eastwest;fontSize=13;" parent="DQqMGWL0dYQCKO8By0Vx-118" vertex="1">
          <mxGeometry y="26" width="290" height="26" as="geometry" />
        </mxCell>
        <mxCell id="DQqMGWL0dYQCKO8By0Vx-126" value="+&amp;nbsp;klass: TypeKlass" style="text;strokeColor=none;fillColor=none;align=left;verticalAlign=top;spacingLeft=4;spacingRight=4;overflow=hidden;rotatable=0;points=[[0,0.5],[1,0.5]];portConstraint=eastwest;whiteSpace=wrap;html=1;fontSize=13;" parent="DQqMGWL0dYQCKO8By0Vx-118" vertex="1">
          <mxGeometry y="52" width="290" height="26" as="geometry" />
        </mxCell>
        <mxCell id="DQqMGWL0dYQCKO8By0Vx-125" style="edgeStyle=orthogonalEdgeStyle;rounded=0;orthogonalLoop=1;jettySize=auto;html=1;exitX=0;exitY=0.5;exitDx=0;exitDy=0;entryX=0.5;entryY=0;entryDx=0;entryDy=0;fontSize=13;dashed=1;dashPattern=8 8;" parent="3YhitboZt-2DmiQwaE2G-18" source="DQqMGWL0dYQCKO8By0Vx-119" target="DQqMGWL0dYQCKO8By0Vx-107" edge="1">
          <mxGeometry relative="1" as="geometry" />
        </mxCell>
        <mxCell id="DQqMGWL0dYQCKO8By0Vx-130" style="edgeStyle=orthogonalEdgeStyle;rounded=0;orthogonalLoop=1;jettySize=auto;html=1;exitX=1;exitY=0.5;exitDx=0;exitDy=0;fontSize=13;" parent="3YhitboZt-2DmiQwaE2G-18" source="DQqMGWL0dYQCKO8By0Vx-129" target="DQqMGWL0dYQCKO8By0Vx-118" edge="1">
          <mxGeometry relative="1" as="geometry" />
        </mxCell>
        <mxCell id="3YhitboZt-2DmiQwaE2G-3" style="edgeStyle=orthogonalEdgeStyle;rounded=0;orthogonalLoop=1;jettySize=auto;html=1;exitX=0;exitY=0.5;exitDx=0;exitDy=0;fontSize=13;dashed=1;dashPattern=8 8;" edge="1" parent="3YhitboZt-2DmiQwaE2G-18" source="DQqMGWL0dYQCKO8By0Vx-96" target="DQqMGWL0dYQCKO8By0Vx-23">
          <mxGeometry relative="1" as="geometry">
            <Array as="points">
              <mxPoint x="220" y="567" />
              <mxPoint x="195" y="567" />
              <mxPoint x="195" y="480" />
              <mxPoint x="290" y="480" />
            </Array>
          </mxGeometry>
        </mxCell>
        <mxCell id="3YhitboZt-2DmiQwaE2G-4" style="edgeStyle=orthogonalEdgeStyle;rounded=0;orthogonalLoop=1;jettySize=auto;html=1;exitX=0;exitY=0.5;exitDx=0;exitDy=0;fontSize=13;dashed=1;dashPattern=8 8;" edge="1" parent="3YhitboZt-2DmiQwaE2G-18" source="DQqMGWL0dYQCKO8By0Vx-95" target="DQqMGWL0dYQCKO8By0Vx-72">
          <mxGeometry relative="1" as="geometry" />
        </mxCell>
        <mxCell id="3YhitboZt-2DmiQwaE2G-5" style="edgeStyle=orthogonalEdgeStyle;rounded=0;orthogonalLoop=1;jettySize=auto;html=1;exitX=1;exitY=0.5;exitDx=0;exitDy=0;fontSize=13;" edge="1" parent="3YhitboZt-2DmiQwaE2G-18" source="DQqMGWL0dYQCKO8By0Vx-54" target="17acba5748e5396b-2">
          <mxGeometry relative="1" as="geometry">
            <Array as="points">
              <mxPoint x="775" y="658" />
              <mxPoint x="775" y="413" />
              <mxPoint x="710" y="413" />
            </Array>
          </mxGeometry>
        </mxCell>
        <mxCell id="3YhitboZt-2DmiQwaE2G-6" style="edgeStyle=orthogonalEdgeStyle;rounded=0;orthogonalLoop=1;jettySize=auto;html=1;exitX=1;exitY=0.5;exitDx=0;exitDy=0;fontSize=13;" edge="1" parent="3YhitboZt-2DmiQwaE2G-18" source="DQqMGWL0dYQCKO8By0Vx-52" target="17acba5748e5396b-2">
          <mxGeometry relative="1" as="geometry" />
        </mxCell>
        <mxCell id="3YhitboZt-2DmiQwaE2G-8" style="edgeStyle=orthogonalEdgeStyle;rounded=0;orthogonalLoop=1;jettySize=auto;html=1;exitX=1;exitY=0.5;exitDx=0;exitDy=0;fontSize=13;" edge="1" parent="3YhitboZt-2DmiQwaE2G-18" source="DQqMGWL0dYQCKO8By0Vx-50" target="17acba5748e5396b-2">
          <mxGeometry relative="1" as="geometry" />
        </mxCell>
        <mxCell id="3YhitboZt-2DmiQwaE2G-9" style="edgeStyle=orthogonalEdgeStyle;rounded=0;orthogonalLoop=1;jettySize=auto;html=1;exitX=1;exitY=0.5;exitDx=0;exitDy=0;fontSize=13;" edge="1" parent="3YhitboZt-2DmiQwaE2G-18" source="DQqMGWL0dYQCKO8By0Vx-65" target="17acba5748e5396b-2">
          <mxGeometry relative="1" as="geometry" />
        </mxCell>
        <mxCell id="3YhitboZt-2DmiQwaE2G-19" value="继承" style="edgeLabel;html=1;align=center;verticalAlign=middle;resizable=0;points=[];fontFamily=Helvetica;fontSize=13;fontColor=light-dark(#000000, #dadaff);labelBackgroundColor=default;" vertex="1" connectable="0" parent="3YhitboZt-2DmiQwaE2G-9">
          <mxGeometry x="0.8504" y="-1" relative="1" as="geometry">
            <mxPoint as="offset" />
          </mxGeometry>
        </mxCell>
        <mxCell id="3YhitboZt-2DmiQwaE2G-13" style="edgeStyle=orthogonalEdgeStyle;rounded=0;orthogonalLoop=1;jettySize=auto;html=1;exitX=1;exitY=0.5;exitDx=0;exitDy=0;fontSize=13;fillColor=#dae8fc;strokeColor=default;align=center;verticalAlign=middle;fontFamily=Helvetica;fontColor=default;labelBackgroundColor=default;endArrow=classic;dashed=1;dashPattern=8 8;" edge="1" parent="3YhitboZt-2DmiQwaE2G-18" source="DQqMGWL0dYQCKO8By0Vx-126" target="DQqMGWL0dYQCKO8By0Vx-24">
          <mxGeometry relative="1" as="geometry">
            <Array as="points">
              <mxPoint x="805" y="795" />
              <mxPoint x="805" y="561" />
              <mxPoint x="620" y="561" />
            </Array>
          </mxGeometry>
        </mxCell>
      </root>
    </mxGraphModel>
  </diagram>
</mxfile>
